<svg xmlns="http://www.w3.org/2000/svg" xmlns:xlink="http://www.w3.org/1999/xlink" width="160" height="160" viewBox="0 0 160 160">
  <defs>
    <clipPath id="clip-path">
      <path id="Tracé_28" data-name="Tracé 28" d="M0,0H160V160H0Z" fill="#fff"/>
    </clipPath>
  </defs>
  <g id="baseline-import_contacts-24px" clip-path="url(#clip-path)">
    <path id="Tracé_27" data-name="Tracé 27" d="M134.333,7.833A78.7,78.7,0,0,0,111,4.5c-13,0-27,2.667-36.667,10-9.667-7.333-23.667-10-36.667-10S10.667,7.167,1,14.5v97.667A3.585,3.585,0,0,0,4.333,115.5c.667,0,1-.333,1.667-.333a81.369,81.369,0,0,1,31.667-7.333c13,0,27,2.667,36.667,10,9-5.667,25.333-10,36.667-10,11,0,22.333,2,31.667,7a3.005,3.005,0,0,0,1.667.333,3.585,3.585,0,0,0,3.333-3.333V14.5A45.471,45.471,0,0,0,134.333,7.833Zm0,90A77.469,77.469,0,0,0,111,94.5c-11.333,0-27.667,4.333-36.667,10V27.833c9-5.667,25.333-10,36.667-10a77.469,77.469,0,0,1,23.333,3.333Z" transform="translate(5.667 25.5)" fill="#fff"/>
  </g>
</svg>
